<svg xmlns="http://www.w3.org/2000/svg" width="32" height="32" viewBox="0 0 32 32">
    <rect width="32" height="32" rx="7.104" fill="#326ce5"/>
    <g stroke="#ffffff" stroke-width="1.41" stroke-linecap="round"><line x1="16" y1="16" x2="16.00" y2="6.40"/><line x1="16" y1="16" x2="23.51" y2="10.01"/><line x1="16" y1="16" x2="25.36" y2="18.14"/><line x1="16" y1="16" x2="20.17" y2="24.65"/><line x1="16" y1="16" x2="11.83" y2="24.65"/><line x1="16" y1="16" x2="6.64" y2="18.14"/><line x1="16" y1="16" x2="8.49" y2="10.01"/></g>
    <polygon points="16.00,6.40 23.51,10.01 25.36,18.14 20.17,24.65 11.83,24.65 6.64,18.14 8.49,10.01" fill="none" stroke="#ffffff" stroke-width="2.05" stroke-linejoin="round"/>
    <g fill="#ffffff"><circle cx="16.00" cy="6.40" r="1.34"/><circle cx="23.51" cy="10.01" r="1.34"/><circle cx="25.36" cy="18.14" r="1.34"/><circle cx="20.17" cy="24.65" r="1.34"/><circle cx="11.83" cy="24.65" r="1.34"/><circle cx="6.64" cy="18.14" r="1.34"/><circle cx="8.49" cy="10.01" r="1.34"/></g>
    <circle cx="16" cy="16" r="3.01" fill="#ffffff"/>
    <circle cx="16" cy="16" r="1.50" fill="#f59e0b"/>
  </svg>
