<svg width="32" height="32" viewBox="0 0 32 32" fill="none" xmlns="http://www.w3.org/2000/svg">
  <rect width="32" height="32" rx="7" fill="#326ce5"/>
  <g stroke="#ffffff" stroke-width="1.4" stroke-linecap="round">
    <line x1="16" y1="16" x2="16" y2="7"/>
    <line x1="16" y1="16" x2="23.04" y2="10.39"/>
    <line x1="16" y1="16" x2="24.77" y2="18"/>
    <line x1="16" y1="16" x2="19.9" y2="24.11"/>
    <line x1="16" y1="16" x2="12.1" y2="24.11"/>
    <line x1="16" y1="16" x2="7.23" y2="18"/>
    <line x1="16" y1="16" x2="8.96" y2="10.39"/>
  </g>
  <polygon points="16,7 23.04,10.39 24.77,18 19.9,24.11 12.1,24.11 7.23,18 8.96,10.39"
           fill="none" stroke="#ffffff" stroke-width="2.1" stroke-linejoin="round"/>
  <g fill="#ffffff">
    <circle cx="16" cy="7" r="1.35"/>
    <circle cx="23.04" cy="10.39" r="1.35"/>
    <circle cx="24.77" cy="18" r="1.35"/>
    <circle cx="19.9" cy="24.11" r="1.35"/>
    <circle cx="12.1" cy="24.11" r="1.35"/>
    <circle cx="7.23" cy="18" r="1.35"/>
    <circle cx="8.96" cy="10.39" r="1.35"/>
  </g>
  <circle cx="16" cy="16" r="3" fill="#ffffff"/>
  <circle cx="16" cy="16" r="1.5" fill="#f59e0b"/>
</svg>
